solid ExportedModel
facet normal 0 0 1
  outer loop
    vertex 100 -50 50
    vertex 200 -50 50
    vertex 200 50 50
  endloop
endfacet
facet normal 0 0 1
  outer loop
    vertex 200 50 50
    vertex 100 50 50
    vertex 100 -50 50
  endloop
endfacet
facet normal 1 0 0
  outer loop
    vertex 200 -50 50
    vertex 200 -50 -50
    vertex 200 50 -50
  endloop
endfacet
facet normal 1 0 -0
  outer loop
    vertex 200 50 -50
    vertex 200 50 50
    vertex 200 -50 50
  endloop
endfacet
facet normal 0 0 -1
  outer loop
    vertex 200 -50 -50
    vertex 100 -50 -50
    vertex 100 50 -50
  endloop
endfacet
facet normal 0 0 -1
  outer loop
    vertex 100 50 -50
    vertex 200 50 -50
    vertex 200 -50 -50
  endloop
endfacet
facet normal -1 0 0
  outer loop
    vertex 100 -50 -50
    vertex 100 -50 50
    vertex 100 50 50
  endloop
endfacet
facet normal -1 0 -0
  outer loop
    vertex 100 50 50
    vertex 100 50 -50
    vertex 100 -50 -50
  endloop
endfacet
facet normal 0 -1 0
  outer loop
    vertex 100 -50 -50
    vertex 200 -50 -50
    vertex 200 -50 50
  endloop
endfacet
facet normal -0 -1 0
  outer loop
    vertex 200 -50 50
    vertex 100 -50 50
    vertex 100 -50 -50
  endloop
endfacet
facet normal -0 1 0
  outer loop
    vertex 100 50 50
    vertex 200 50 50
    vertex 200 50 -50
  endloop
endfacet
facet normal 0 1 0
  outer loop
    vertex 200 50 -50
    vertex 100 50 -50
    vertex 100 50 50
  endloop
endfacet
facet normal 0 0 1
  outer loop
    vertex -220 -50 50
    vertex -120 -50 50
    vertex -120 50 50
  endloop
endfacet
facet normal 0 0 1
  outer loop
    vertex -120 50 50
    vertex -220 50 50
    vertex -220 -50 50
  endloop
endfacet
facet normal 1 0 0
  outer loop
    vertex -120 -50 50
    vertex -120 -50 -50
    vertex -120 50 -50
  endloop
endfacet
facet normal 1 0 -0
  outer loop
    vertex -120 50 -50
    vertex -120 50 50
    vertex -120 -50 50
  endloop
endfacet
facet normal 0 0 -1
  outer loop
    vertex -120 -50 -50
    vertex -220 -50 -50
    vertex -220 50 -50
  endloop
endfacet
facet normal 0 0 -1
  outer loop
    vertex -220 50 -50
    vertex -120 50 -50
    vertex -120 -50 -50
  endloop
endfacet
facet normal -1 0 0
  outer loop
    vertex -220 -50 -50
    vertex -220 -50 50
    vertex -220 50 50
  endloop
endfacet
facet normal -1 0 -0
  outer loop
    vertex -220 50 50
    vertex -220 50 -50
    vertex -220 -50 -50
  endloop
endfacet
facet normal 0 -1 0
  outer loop
    vertex -220 -50 -50
    vertex -120 -50 -50
    vertex -120 -50 50
  endloop
endfacet
facet normal -0 -1 0
  outer loop
    vertex -120 -50 50
    vertex -220 -50 50
    vertex -220 -50 -50
  endloop
endfacet
facet normal -0 1 0
  outer loop
    vertex -220 50 50
    vertex -120 50 50
    vertex -120 50 -50
  endloop
endfacet
facet normal 0 1 0
  outer loop
    vertex -120 50 -50
    vertex -220 50 -50
    vertex -220 50 50
  endloop
endfacet
facet normal 0 0 1
  outer loop
    vertex -50 -50 50
    vertex 50 -50 50
    vertex 50 50 50
  endloop
endfacet
facet normal 0 0 1
  outer loop
    vertex 50 50 50
    vertex -50 50 50
    vertex -50 -50 50
  endloop
endfacet
facet normal 1 0 0
  outer loop
    vertex 50 -50 50
    vertex 50 -50 -50
    vertex 50 50 -50
  endloop
endfacet
facet normal 1 0 -0
  outer loop
    vertex 50 50 -50
    vertex 50 50 50
    vertex 50 -50 50
  endloop
endfacet
facet normal 0 0 -1
  outer loop
    vertex 50 -50 -50
    vertex -50 -50 -50
    vertex -50 50 -50
  endloop
endfacet
facet normal 0 0 -1
  outer loop
    vertex -50 50 -50
    vertex 50 50 -50
    vertex 50 -50 -50
  endloop
endfacet
facet normal -1 0 0
  outer loop
    vertex -50 -50 -50
    vertex -50 -50 50
    vertex -50 50 50
  endloop
endfacet
facet normal -1 0 -0
  outer loop
    vertex -50 50 50
    vertex -50 50 -50
    vertex -50 -50 -50
  endloop
endfacet
facet normal 0 -1 0
  outer loop
    vertex -50 -50 -50
    vertex 50 -50 -50
    vertex 50 -50 50
  endloop
endfacet
facet normal -0 -1 0
  outer loop
    vertex 50 -50 50
    vertex -50 -50 50
    vertex -50 -50 -50
  endloop
endfacet
facet normal -0 1 0
  outer loop
    vertex -50 50 50
    vertex 50 50 50
    vertex 50 50 -50
  endloop
endfacet
facet normal 0 1 0
  outer loop
    vertex 50 50 -50
    vertex -50 50 -50
    vertex -50 50 50
  endloop
endfacet
end solid ExportedModel